<mxfile host="app.diagrams.net" modified="2023-07-23T10:25:32.928Z" agent="Mozilla/5.0 (Windows NT 10.0; Win64; x64) AppleWebKit/537.36 (KHTML, like Gecko) Chrome/114.0.0.0 Safari/537.36" etag="7fiG7R1_eEjXvJT821z7" version="21.6.5" type="github">
  <diagram name="페이지-1" id="p1ByH7g944NHbBjPvcq9">
    <mxGraphModel dx="1562" dy="821" grid="1" gridSize="10" guides="1" tooltips="1" connect="1" arrows="1" fold="1" page="1" pageScale="1" pageWidth="827" pageHeight="1169" math="0" shadow="0">
      <root>
        <mxCell id="0" />
        <mxCell id="1" parent="0" />
        <mxCell id="AG7uI7BD0UfdcCFwsvod-1" value="이용자" style="shape=umlActor;verticalLabelPosition=bottom;verticalAlign=top;html=1;outlineConnect=0;" vertex="1" parent="1">
          <mxGeometry x="60" y="160" width="30" height="60" as="geometry" />
        </mxCell>
        <mxCell id="AG7uI7BD0UfdcCFwsvod-3" value="게시판 서비스" style="shape=umlFrame;whiteSpace=wrap;html=1;pointerEvents=0;width=90;height=20;" vertex="1" parent="1">
          <mxGeometry x="170" y="40" width="630" height="740" as="geometry" />
        </mxCell>
        <mxCell id="AG7uI7BD0UfdcCFwsvod-16" style="edgeStyle=orthogonalEdgeStyle;rounded=0;orthogonalLoop=1;jettySize=auto;html=1;exitX=0;exitY=0.5;exitDx=0;exitDy=0;entryX=1;entryY=0.3333333333333333;entryDx=0;entryDy=0;entryPerimeter=0;endArrow=none;endFill=0;" edge="1" parent="1" source="AG7uI7BD0UfdcCFwsvod-4" target="AG7uI7BD0UfdcCFwsvod-1">
          <mxGeometry relative="1" as="geometry" />
        </mxCell>
        <mxCell id="AG7uI7BD0UfdcCFwsvod-4" value="회원가입" style="rounded=1;whiteSpace=wrap;html=1;arcSize=40;fontColor=#000000;fillColor=#ffffc0;strokeColor=#ff0000;" vertex="1" parent="1">
          <mxGeometry x="200" y="160" width="120" height="40" as="geometry" />
        </mxCell>
        <mxCell id="AG7uI7BD0UfdcCFwsvod-20" style="rounded=0;orthogonalLoop=1;jettySize=auto;html=1;exitX=0;exitY=0.5;exitDx=0;exitDy=0;entryX=1;entryY=0.3333333333333333;entryDx=0;entryDy=0;entryPerimeter=0;endArrow=none;endFill=0;" edge="1" parent="1" source="AG7uI7BD0UfdcCFwsvod-6" target="AG7uI7BD0UfdcCFwsvod-1">
          <mxGeometry relative="1" as="geometry" />
        </mxCell>
        <mxCell id="AG7uI7BD0UfdcCFwsvod-26" style="rounded=0;orthogonalLoop=1;jettySize=auto;html=1;exitX=1;exitY=0.5;exitDx=0;exitDy=0;entryX=0.5;entryY=1;entryDx=0;entryDy=0;dashed=1;" edge="1" parent="1" source="AG7uI7BD0UfdcCFwsvod-6" target="AG7uI7BD0UfdcCFwsvod-8">
          <mxGeometry relative="1" as="geometry" />
        </mxCell>
        <mxCell id="AG7uI7BD0UfdcCFwsvod-36" style="edgeStyle=none;shape=connector;rounded=0;orthogonalLoop=1;jettySize=auto;html=1;exitX=1;exitY=0.5;exitDx=0;exitDy=0;labelBackgroundColor=default;strokeColor=default;fontFamily=Helvetica;fontSize=11;fontColor=default;endArrow=none;endFill=0;" edge="1" parent="1" source="AG7uI7BD0UfdcCFwsvod-6">
          <mxGeometry relative="1" as="geometry">
            <mxPoint x="900" y="270" as="targetPoint" />
          </mxGeometry>
        </mxCell>
        <mxCell id="AG7uI7BD0UfdcCFwsvod-6" value="게시판 보기" style="rounded=1;whiteSpace=wrap;html=1;arcSize=40;fontColor=#000000;fillColor=#ffffc0;strokeColor=#ff0000;" vertex="1" parent="1">
          <mxGeometry x="200" y="300" width="120" height="40" as="geometry" />
        </mxCell>
        <mxCell id="AG7uI7BD0UfdcCFwsvod-21" style="rounded=0;orthogonalLoop=1;jettySize=auto;html=1;exitX=0;exitY=0.5;exitDx=0;exitDy=0;endArrow=none;endFill=0;" edge="1" parent="1" source="AG7uI7BD0UfdcCFwsvod-7">
          <mxGeometry relative="1" as="geometry">
            <mxPoint x="90" y="180" as="targetPoint" />
          </mxGeometry>
        </mxCell>
        <mxCell id="AG7uI7BD0UfdcCFwsvod-27" style="edgeStyle=none;shape=connector;rounded=0;orthogonalLoop=1;jettySize=auto;html=1;exitX=1;exitY=0.5;exitDx=0;exitDy=0;entryX=0.5;entryY=1;entryDx=0;entryDy=0;dashed=1;labelBackgroundColor=default;strokeColor=default;fontFamily=Helvetica;fontSize=11;fontColor=default;endArrow=classic;" edge="1" parent="1" source="AG7uI7BD0UfdcCFwsvod-7" target="AG7uI7BD0UfdcCFwsvod-8">
          <mxGeometry relative="1" as="geometry" />
        </mxCell>
        <mxCell id="AG7uI7BD0UfdcCFwsvod-37" style="edgeStyle=none;shape=connector;rounded=0;orthogonalLoop=1;jettySize=auto;html=1;exitX=1;exitY=0.5;exitDx=0;exitDy=0;entryX=0;entryY=0.5;entryDx=0;entryDy=0;labelBackgroundColor=default;strokeColor=default;fontFamily=Helvetica;fontSize=11;fontColor=default;endArrow=none;endFill=0;" edge="1" parent="1" source="AG7uI7BD0UfdcCFwsvod-7" target="AG7uI7BD0UfdcCFwsvod-32">
          <mxGeometry relative="1" as="geometry" />
        </mxCell>
        <mxCell id="AG7uI7BD0UfdcCFwsvod-7" value="게시글 보기" style="rounded=1;whiteSpace=wrap;html=1;arcSize=40;fontColor=#000000;fillColor=#ffffc0;strokeColor=#ff0000;" vertex="1" parent="1">
          <mxGeometry x="200" y="440" width="120" height="40" as="geometry" />
        </mxCell>
        <mxCell id="AG7uI7BD0UfdcCFwsvod-19" style="edgeStyle=orthogonalEdgeStyle;rounded=0;orthogonalLoop=1;jettySize=auto;html=1;exitX=1;exitY=0.5;exitDx=0;exitDy=0;entryX=0;entryY=0.5;entryDx=0;entryDy=0;endArrow=classic;endFill=1;dashed=1;" edge="1" parent="1" source="AG7uI7BD0UfdcCFwsvod-8" target="AG7uI7BD0UfdcCFwsvod-9">
          <mxGeometry relative="1" as="geometry" />
        </mxCell>
        <mxCell id="AG7uI7BD0UfdcCFwsvod-22" value="&amp;lt;enclude&amp;gt;" style="edgeStyle=orthogonalEdgeStyle;rounded=0;orthogonalLoop=1;jettySize=auto;html=1;" edge="1" parent="1" source="AG7uI7BD0UfdcCFwsvod-8" target="AG7uI7BD0UfdcCFwsvod-9">
          <mxGeometry relative="1" as="geometry">
            <mxPoint as="offset" />
          </mxGeometry>
        </mxCell>
        <mxCell id="AG7uI7BD0UfdcCFwsvod-8" value="회원 로그인" style="rounded=1;whiteSpace=wrap;html=1;arcSize=40;fontColor=#000000;fillColor=#ffffc0;strokeColor=#ff0000;" vertex="1" parent="1">
          <mxGeometry x="370" y="80" width="120" height="40" as="geometry" />
        </mxCell>
        <mxCell id="AG7uI7BD0UfdcCFwsvod-35" style="edgeStyle=none;shape=connector;rounded=0;orthogonalLoop=1;jettySize=auto;html=1;exitX=1;exitY=0.5;exitDx=0;exitDy=0;entryX=0;entryY=0.5;entryDx=0;entryDy=0;labelBackgroundColor=default;strokeColor=default;fontFamily=Helvetica;fontSize=11;fontColor=default;endArrow=none;endFill=0;" edge="1" parent="1" source="AG7uI7BD0UfdcCFwsvod-9" target="AG7uI7BD0UfdcCFwsvod-32">
          <mxGeometry relative="1" as="geometry" />
        </mxCell>
        <mxCell id="AG7uI7BD0UfdcCFwsvod-9" value="인증" style="rounded=1;whiteSpace=wrap;html=1;arcSize=40;fontColor=#000000;fillColor=#ffffc0;strokeColor=#ff0000;" vertex="1" parent="1">
          <mxGeometry x="660" y="80" width="120" height="40" as="geometry" />
        </mxCell>
        <mxCell id="AG7uI7BD0UfdcCFwsvod-23" value="&amp;lt;extend&amp;gt;" style="rounded=0;orthogonalLoop=1;jettySize=auto;html=1;exitX=0;exitY=0.5;exitDx=0;exitDy=0;entryX=1;entryY=0.5;entryDx=0;entryDy=0;dashed=1;" edge="1" parent="1" source="AG7uI7BD0UfdcCFwsvod-10" target="AG7uI7BD0UfdcCFwsvod-8">
          <mxGeometry relative="1" as="geometry" />
        </mxCell>
        <mxCell id="AG7uI7BD0UfdcCFwsvod-10" value="로그인 실패" style="rounded=1;whiteSpace=wrap;html=1;arcSize=40;fontColor=#000000;fillColor=#ffffc0;strokeColor=#ff0000;" vertex="1" parent="1">
          <mxGeometry x="660" y="160" width="120" height="40" as="geometry" />
        </mxCell>
        <mxCell id="AG7uI7BD0UfdcCFwsvod-28" style="edgeStyle=none;shape=connector;rounded=0;orthogonalLoop=1;jettySize=auto;html=1;exitX=0;exitY=0.5;exitDx=0;exitDy=0;entryX=1;entryY=0.5;entryDx=0;entryDy=0;dashed=1;labelBackgroundColor=default;strokeColor=default;fontFamily=Helvetica;fontSize=11;fontColor=default;endArrow=classic;" edge="1" parent="1" source="AG7uI7BD0UfdcCFwsvod-11" target="AG7uI7BD0UfdcCFwsvod-6">
          <mxGeometry relative="1" as="geometry" />
        </mxCell>
        <mxCell id="AG7uI7BD0UfdcCFwsvod-11" value="게시판 정렬" style="rounded=1;whiteSpace=wrap;html=1;arcSize=40;fontColor=#000000;fillColor=#ffffc0;strokeColor=#ff0000;" vertex="1" parent="1">
          <mxGeometry x="430" y="230" width="120" height="40" as="geometry" />
        </mxCell>
        <mxCell id="AG7uI7BD0UfdcCFwsvod-29" style="edgeStyle=none;shape=connector;rounded=0;orthogonalLoop=1;jettySize=auto;html=1;exitX=0;exitY=0.5;exitDx=0;exitDy=0;dashed=1;labelBackgroundColor=default;strokeColor=default;fontFamily=Helvetica;fontSize=11;fontColor=default;endArrow=classic;entryX=1;entryY=0.5;entryDx=0;entryDy=0;" edge="1" parent="1" source="AG7uI7BD0UfdcCFwsvod-12" target="AG7uI7BD0UfdcCFwsvod-6">
          <mxGeometry relative="1" as="geometry">
            <mxPoint x="330" y="320" as="targetPoint" />
          </mxGeometry>
        </mxCell>
        <mxCell id="AG7uI7BD0UfdcCFwsvod-12" value="게시판 검색" style="rounded=1;whiteSpace=wrap;html=1;arcSize=40;fontColor=#000000;fillColor=#ffffc0;strokeColor=#ff0000;" vertex="1" parent="1">
          <mxGeometry x="430" y="320" width="120" height="40" as="geometry" />
        </mxCell>
        <mxCell id="AG7uI7BD0UfdcCFwsvod-30" style="edgeStyle=none;shape=connector;rounded=0;orthogonalLoop=1;jettySize=auto;html=1;exitX=0;exitY=0.5;exitDx=0;exitDy=0;entryX=1;entryY=0.5;entryDx=0;entryDy=0;dashed=1;labelBackgroundColor=default;strokeColor=default;fontFamily=Helvetica;fontSize=11;fontColor=default;endArrow=classic;" edge="1" parent="1" source="AG7uI7BD0UfdcCFwsvod-13" target="AG7uI7BD0UfdcCFwsvod-7">
          <mxGeometry relative="1" as="geometry" />
        </mxCell>
        <mxCell id="AG7uI7BD0UfdcCFwsvod-38" style="edgeStyle=none;shape=connector;rounded=0;orthogonalLoop=1;jettySize=auto;html=1;exitX=1;exitY=0.5;exitDx=0;exitDy=0;labelBackgroundColor=default;strokeColor=default;fontFamily=Helvetica;fontSize=11;fontColor=default;endArrow=none;endFill=0;" edge="1" parent="1" source="AG7uI7BD0UfdcCFwsvod-13">
          <mxGeometry relative="1" as="geometry">
            <mxPoint x="900" y="270" as="targetPoint" />
          </mxGeometry>
        </mxCell>
        <mxCell id="AG7uI7BD0UfdcCFwsvod-13" value="게시글 쓰기, 수정, 삭제" style="rounded=1;whiteSpace=wrap;html=1;arcSize=40;fontColor=#000000;fillColor=#ffffc0;strokeColor=#ff0000;" vertex="1" parent="1">
          <mxGeometry x="414" y="440" width="120" height="40" as="geometry" />
        </mxCell>
        <mxCell id="AG7uI7BD0UfdcCFwsvod-31" style="edgeStyle=none;shape=connector;rounded=0;orthogonalLoop=1;jettySize=auto;html=1;exitX=0;exitY=0.5;exitDx=0;exitDy=0;dashed=1;labelBackgroundColor=default;strokeColor=default;fontFamily=Helvetica;fontSize=11;fontColor=default;endArrow=classic;" edge="1" parent="1" source="AG7uI7BD0UfdcCFwsvod-15">
          <mxGeometry relative="1" as="geometry">
            <mxPoint x="320" y="460" as="targetPoint" />
          </mxGeometry>
        </mxCell>
        <mxCell id="AG7uI7BD0UfdcCFwsvod-39" style="edgeStyle=none;shape=connector;rounded=0;orthogonalLoop=1;jettySize=auto;html=1;exitX=1;exitY=0.5;exitDx=0;exitDy=0;labelBackgroundColor=default;strokeColor=default;fontFamily=Helvetica;fontSize=11;fontColor=default;endArrow=none;endFill=0;" edge="1" parent="1" source="AG7uI7BD0UfdcCFwsvod-15">
          <mxGeometry relative="1" as="geometry">
            <mxPoint x="900" y="270" as="targetPoint" />
          </mxGeometry>
        </mxCell>
        <mxCell id="AG7uI7BD0UfdcCFwsvod-15" value="댓글 보기, 쓰기, 수정, 삭제" style="rounded=1;whiteSpace=wrap;html=1;arcSize=40;fontColor=#000000;fillColor=#ffffc0;strokeColor=#ff0000;" vertex="1" parent="1">
          <mxGeometry x="414" y="510" width="120" height="40" as="geometry" />
        </mxCell>
        <mxCell id="AG7uI7BD0UfdcCFwsvod-18" style="rounded=0;orthogonalLoop=1;jettySize=auto;html=1;exitX=0;exitY=0.5;exitDx=0;exitDy=0;entryX=1;entryY=0.3333333333333333;entryDx=0;entryDy=0;entryPerimeter=0;endArrow=none;endFill=0;" edge="1" parent="1" source="AG7uI7BD0UfdcCFwsvod-8" target="AG7uI7BD0UfdcCFwsvod-1">
          <mxGeometry relative="1" as="geometry" />
        </mxCell>
        <mxCell id="AG7uI7BD0UfdcCFwsvod-32" value="DB" style="html=1;dropTarget=0;whiteSpace=wrap;fontFamily=Helvetica;fontSize=15;fontColor=default;" vertex="1" parent="1">
          <mxGeometry x="900" y="220" width="100" height="100" as="geometry" />
        </mxCell>
        <mxCell id="AG7uI7BD0UfdcCFwsvod-34" style="edgeStyle=none;shape=connector;rounded=0;orthogonalLoop=1;jettySize=auto;html=1;exitX=0.75;exitY=1;exitDx=0;exitDy=0;dashed=1;labelBackgroundColor=default;strokeColor=default;fontFamily=Helvetica;fontSize=11;fontColor=default;endArrow=classic;" edge="1" parent="1" source="AG7uI7BD0UfdcCFwsvod-32" target="AG7uI7BD0UfdcCFwsvod-32">
          <mxGeometry relative="1" as="geometry" />
        </mxCell>
      </root>
    </mxGraphModel>
  </diagram>
</mxfile>
